<svg xmlns="http://www.w3.org/2000/svg" width="64.000000pt" height="64.000000pt" viewBox="0 0 64.000000 64.000000" preserveAspectRatio="xMidYMid meet"><g transform="translate(0.000000,64.000000) scale(0.100000,-0.100000)" fill="#045ACB" stroke="none"><path d="M240 582 c-55 -27 -71 -66 -81 -199 l-10 -117 -48 -51 c-52 -55 -71 -93 -51 -105 6 -4 10 -20 8 -35 -2 -16 2 -30 10 -32 7 -3 12 4 12 15 0 44 8 49 59 41 26 -4 87 -19 135 -34 105 -33 192 -31 250 5 l36 22 0 -26 c0 -14 4 -26 9 -26 17 0 20 15 12 52 -5 21 -4 43 2 53 7 14 3 22 -20 41 -45 35 -74 112 -83 221 -9 107 -29 149 -80 175 -19 10 -55 18 -80 18 -25 0 -61 -8 -80 -18z m158 -28 c32 -22 52 -67 52 -117 0 -60 16 -144 36 -190 23 -50 8 -83 -46 -104 -44 -18 -52 -33 -17 -33 25 0 63 23 87 53 15 18 17 18 29 3 11 -13 11 -22 2 -42 -27 -61 -151 -71 -298 -24 -51 17 -111 30 -133 30 l-41 0 15 29 c9 16 27 38 42 48 l27 20 31 -34 c34 -38 98 -58 150 -48 79 15 116 28 116 42 0 11 -6 13 -22 8 -57 -18 -128 -27 -160 -21 -43 8 -85 51 -94 94 l-7 33 31 -30 c17 -17 35 -31 41 -31 19 0 12 20 -16 45 -25 21 -28 30 -31 104 -7 134 27 181 127 181 35 0 65 -6 79 -16z"></path><path d="M273 535 c-46 -20 -66 -65 -61 -137 6 -81 37 -113 108 -113 71 0 102 32 108 113 5 73 -15 118 -63 138 -42 17 -51 17 -92 -1z m96 -32 c21 -18 20 -18 -49 -18 -69 0 -70 0 -49 18 11 9 34 17 49 17 15 0 38 -8 49 -17z m-8 -45 c38 -11 39 -13 39 -56 0 -59 -28 -92 -79 -92 -52 0 -81 32 -81 90 0 44 2 48 33 58 43 14 44 14 88 0z"></path><path d="M388 269 c-35 -36 -47 -59 -32 -59 13 0 65 43 75 62 20 37 -6 35 -43 -3z"></path></g></svg>