<?xml version="1.0" standalone="no"?>
<!DOCTYPE svg PUBLIC "-//W3C//DTD SVG 20010904//EN"
 "http://www.w3.org/TR/2001/REC-SVG-20010904/DTD/svg10.dtd">
<svg version="1.0" xmlns="http://www.w3.org/2000/svg"
 width="50.000000pt" height="50.000000pt" viewBox="0 0 50.000000 50.000000"
 preserveAspectRatio="xMidYMid meet">

<g transform="translate(0.000000,50.000000) scale(0.100000,-0.100000)"
fill="#045ACB" stroke="none">
<path d="M82 477 c-28 -30 -28 -68 1 -95 30 -28 68 -28 95 1 28 30 28 68 -1
95 -30 28 -68 28 -95 -1z m82 -13 c9 -8 16 -24 16 -34 0 -43 -54 -65 -84 -34
-31 30 -9 84 34 84 10 0 26 -7 34 -16z"/>
<path d="M312 470 c-68 -49 -84 -100 -32 -100 17 0 30 4 30 10 0 5 14 1 30 -8
28 -16 32 -16 60 0 17 9 30 13 30 8 0 -6 14 -10 30 -10 32 0 38 16 19 51 -13
26 -87 79 -109 79 -9 0 -35 -13 -58 -30z m92 -6 c9 -8 16 -24 16 -34 0 -43
-54 -65 -84 -34 -9 8 -16 24 -16 34 0 10 7 26 16 34 8 9 24 16 34 16 10 0 26
-7 34 -16z m-114 -54 c0 -11 -4 -20 -9 -20 -5 0 -7 9 -4 20 3 11 7 20 9 20 2
0 4 -9 4 -20z m173 0 c3 -11 1 -20 -4 -20 -5 0 -9 9 -9 20 0 11 2 20 4 20 2 0
6 -9 9 -20z"/>
<path d="M51 331 c-25 -25 -58 -158 -42 -174 9 -9 16 -9 31 1 18 11 19 8 22
-71 3 -80 4 -82 28 -82 24 0 25 3 28 62 2 35 7 63 12 63 5 0 10 -28 12 -63 3
-59 4 -62 28 -62 24 0 25 2 30 85 3 52 8 80 14 72 4 -7 14 -11 22 -8 7 3 20
-1 28 -9 8 -8 24 -15 35 -15 18 0 20 -7 23 -62 l3 -63 45 0 45 0 3 63 c3 54 5
62 23 62 11 0 29 9 41 20 l21 19 -28 76 c-31 85 -52 105 -111 105 -49 0 -67
-17 -93 -86 l-19 -48 -16 57 c-19 66 -34 77 -110 77 -41 0 -61 -5 -75 -19z
m147 -13 c9 -11 42 -123 42 -143 0 -21 -19 12 -29 50 -12 49 -31 61 -31 20 0
-23 -3 -25 -50 -25 -47 0 -50 2 -50 25 0 41 -19 29 -31 -20 -10 -38 -29 -71
-29 -50 0 20 33 132 42 143 6 7 34 12 68 12 34 0 62 -5 68 -12z m243 -48 c33
-68 43 -100 32 -100 -5 0 -17 22 -27 50 -10 28 -22 50 -27 50 -13 0 -11 -13
11 -65 11 -26 20 -49 20 -51 0 -2 -36 -4 -80 -4 -44 0 -80 2 -80 4 0 2 6 19
14 37 23 56 28 79 18 79 -6 0 -18 -22 -28 -50 -10 -27 -22 -50 -26 -50 -11 0
-11 2 13 67 30 81 44 95 93 91 39 -3 42 -6 67 -58z m-261 -95 c0 -23 -3 -25
-50 -25 -47 0 -50 2 -50 25 0 23 3 25 50 25 47 0 50 -2 50 -25z m-80 -100 c0
-30 -4 -55 -10 -55 -5 0 -10 25 -10 55 0 30 5 55 10 55 6 0 10 -25 10 -55z
m80 0 c0 -30 -4 -55 -10 -55 -5 0 -10 25 -10 55 0 30 5 55 10 55 6 0 10 -25
10 -55z m180 0 c0 -30 -4 -55 -10 -55 -5 0 -10 25 -10 55 0 30 5 55 10 55 6 0
10 -25 10 -55z m40 0 c0 -30 -4 -55 -10 -55 -5 0 -10 25 -10 55 0 30 5 55 10
55 6 0 10 -25 10 -55z"/>
</g>
</svg>
