<svg xmlns="http://www.w3.org/2000/svg" width="64.000000pt" height="64.000000pt" viewBox="0 0 64.000000 64.000000" preserveAspectRatio="xMidYMid meet"><g transform="translate(0.000000,64.000000) scale(0.100000,-0.100000)" fill="#045ACB" stroke="none"><path d="M310 616 c0 -21 -8 -26 -65 -41 -36 -10 -65 -21 -65 -24 0 -3 14 -57 31 -120 l30 -114 -21 -22 c-18 -20 -27 -21 -105 -17 -59 3 -90 1 -100 -8 -19 -16 -22 -239 -3 -258 19 -19 167 -16 174 3 5 13 8 13 27 0 17 -12 61 -15 224 -15 l203 0 0 320 0 320 -165 0 -165 0 0 -24z m300 -301 l0 -295 -40 0 c-32 0 -40 4 -40 18 0 9 9 23 20 30 11 7 20 19 20 27 0 9 6 26 13 38 15 25 12 227 -4 227 -5 0 -9 -35 -10 -77 0 -59 -3 -72 -10 -55 -5 13 -18 26 -29 29 -22 6 -26 18 -10 28 16 10 12 57 -7 77 -28 31 -70 22 -92 -20 -10 -19 -10 -28 3 -47 22 -33 20 -37 -11 -33 l-28 3 -3 113 -3 113 30 29 c41 41 91 41 132 1 16 -16 29 -39 29 -50 0 -12 5 -21 10 -21 23 0 10 62 -19 91 -27 26 -36 29 -95 29 -51 0 -66 -3 -66 -15 0 -8 -9 -19 -20 -25 -17 -9 -20 -23 -22 -135 -4 -190 -22 -158 -26 45 l-2 170 140 0 140 0 0 -295z m-300 226 c0 -11 -4 -23 -10 -26 -5 -3 -10 -13 -10 -22 0 -9 -8 -21 -17 -28 -16 -12 -15 -18 6 -99 23 -86 25 -130 4 -91 -9 17 -73 244 -73 259 0 6 58 24 83 25 10 1 17 -6 17 -18z m-3 -143 c-3 -22 -4 -21 -11 4 -5 16 -5 36 0 45 7 16 8 15 11 -4 3 -13 3 -33 0 -45z m197 -63 c9 -25 -5 -45 -30 -45 -14 0 -27 7 -30 15 -10 25 4 45 30 45 13 0 26 -7 30 -15z m-244 -81 c0 -11 24 -14 136 -14 124 0 135 -2 132 -17 -3 -15 -16 -19 -76 -21 -107 -4 -88 -22 24 -22 86 0 95 -2 92 -17 -3 -15 -17 -18 -96 -21 -112 -3 -124 -22 -14 -22 83 0 99 -5 81 -27 -8 -9 -36 -13 -85 -13 -43 0 -74 -4 -74 -10 0 -6 27 -10 61 -10 52 0 60 -2 57 -17 -3 -16 -18 -18 -134 -18 -96 0 -135 4 -147 14 -14 11 -17 32 -17 104 0 79 3 94 21 114 23 23 39 22 39 -3z m-178 -76 c2 -46 7 -73 16 -76 9 -3 12 16 12 72 l0 76 30 0 31 0 -3 -112 -3 -113 -65 0 -65 0 -3 113 -3 112 25 0 c24 0 25 -3 28 -72z"></path><path d="M570 400 c0 -5 5 -10 10 -10 6 0 10 5 10 10 0 6 -4 10 -10 10 -5 0 -10 -4 -10 -10z"></path><path d="M90 60 c0 -5 5 -10 10 -10 6 0 10 5 10 10 0 6 -4 10 -10 10 -5 0 -10 -4 -10 -10z"></path></g></svg>