<?xml version="1.0" encoding="UTF-8"?>
<svg xmlns="http://www.w3.org/2000/svg" xmlns:xlink="http://www.w3.org/1999/xlink" width="65px" height="65px" viewBox="0 0 65 65" version="1.1">
<g id="surface1">
<path style=" stroke:none;fill-rule:nonzero;fill:rgb(1.568627%,35.294118%,79.607843%);fill-opacity:1;" d="M 19.804688 10.96875 L 8.632812 13.710938 L 8.632812 51.289062 L 20.617188 54.132812 L 32.703125 56.875 L 44.484375 54.03125 L 56.367188 51.1875 L 56.367188 13.8125 L 47.226562 11.578125 C 33.414062 8.023438 31.992188 8.023438 19.804688 10.96875 Z M 31.484375 15.132812 L 31.484375 18.992188 L 22.546875 20.210938 C 10.5625 21.734375 10.96875 21.734375 11.375 18.585938 C 11.679688 15.945312 12.289062 15.640625 20.820312 13.609375 C 25.898438 12.390625 30.265625 11.375 30.773438 11.273438 C 31.179688 11.171875 31.484375 12.898438 31.484375 15.132812 Z M 46.71875 14.21875 C 52.710938 15.742188 53.320312 16.148438 53.625 18.6875 C 54.03125 21.53125 53.929688 21.632812 50.070312 21.023438 C 47.9375 20.71875 43.367188 20.109375 39.914062 19.703125 L 33.515625 18.992188 L 33.515625 15.132812 C 33.515625 10.664062 32.90625 10.765625 46.71875 14.21875 Z M 31.484375 25.898438 C 31.484375 29.960938 32.09375 29.859375 20.109375 28.335938 C 13.914062 27.523438 11.171875 26.710938 11.171875 25.796875 C 11.171875 24.273438 18.382812 22.75 27.21875 22.445312 C 31.484375 22.34375 31.484375 22.34375 31.484375 25.898438 Z M 51.59375 24.070312 C 52.8125 24.375 53.828125 25.1875 53.828125 25.898438 C 53.828125 27.117188 51.796875 27.625 39.40625 29.046875 L 33.515625 29.65625 L 33.515625 22.039062 L 41.4375 22.75 C 45.703125 23.15625 50.273438 23.765625 51.59375 24.070312 Z M 29.25 32.195312 C 31.789062 32.804688 31.992188 36.054688 29.554688 36.054688 C 27.21875 36.054688 27.117188 38.289062 29.453125 38.898438 C 31.28125 39.40625 31.484375 40.21875 31.484375 46.617188 C 31.484375 53.625 31.382812 53.828125 29.25 53.320312 C 27.929688 53.015625 23.460938 51.898438 19.296875 50.984375 L 11.679688 49.257812 L 11.375 42.351562 C 11.171875 36.765625 11.375 35.546875 12.695312 35.546875 C 14.625 35.546875 14.726562 33.921875 12.695312 33.109375 C 11.882812 32.804688 11.171875 31.992188 11.171875 31.382812 C 11.171875 30.265625 23.359375 30.773438 29.25 32.195312 Z M 53.828125 31.484375 C 53.828125 32.09375 53.117188 32.804688 52.304688 33.109375 C 50.273438 33.921875 50.375 35.546875 52.304688 35.546875 C 53.625 35.546875 53.828125 36.765625 53.625 42.351562 L 53.320312 49.15625 L 46.71875 50.78125 C 43.0625 51.695312 38.59375 52.710938 36.867188 53.117188 L 33.515625 53.828125 L 33.515625 46.617188 C 33.515625 40.320312 33.71875 39.40625 35.546875 38.898438 C 36.664062 38.59375 37.578125 37.679688 37.578125 36.867188 C 37.578125 35.851562 36.96875 35.546875 36.054688 35.953125 C 34.429688 36.5625 32.703125 34.023438 33.820312 32.804688 C 35.445312 31.179688 53.828125 29.960938 53.828125 31.484375 Z M 53.828125 31.484375 "/>
<path style=" stroke:none;fill-rule:nonzero;fill:rgb(1.568627%,35.294118%,79.607843%);fill-opacity:1;" d="M 17.265625 35.445312 C 17.265625 36.5625 23.257812 38.085938 24.070312 37.273438 C 24.375 36.96875 24.273438 36.257812 23.867188 35.648438 C 23.054688 34.328125 17.265625 34.125 17.265625 35.445312 Z M 17.265625 35.445312 "/>
<path style=" stroke:none;fill-rule:nonzero;fill:rgb(1.568627%,35.294118%,79.607843%);fill-opacity:1;" d="M 41.132812 35.648438 C 40.726562 36.257812 40.625 36.96875 40.929688 37.273438 C 41.742188 38.085938 47.734375 36.5625 47.734375 35.445312 C 47.734375 34.125 41.945312 34.328125 41.132812 35.648438 Z M 41.132812 35.648438 "/>
</g>
</svg>
