<svg xmlns="http://www.w3.org/2000/svg" width="512.000000pt" height="512.000000pt" viewBox="0 0 512.000000 512.000000" preserveAspectRatio="xMidYMid meet"><g transform="translate(0.000000,512.000000) scale(0.100000,-0.100000)" fill="#045ACB" stroke="none"><path d="M1225 4855 c-25 -24 -25 -26 -25 -215 0 -189 0 -191 25 -215 23 -24 29 -25 160 -25 l135 0 0 -2000 0 -2000 -280 0 -280 0 0 84 0 84 34 6 c67 13 171 74 228 134 148 155 179 367 81 555 -25 47 -28 62 -28 162 0 102 -2 115 -31 175 -17 36 -40 76 -51 89 -19 23 -19 28 -6 70 32 102 -13 253 -96 322 -68 56 -118 73 -211 73 -100 0 -160 -24 -225 -89 -65 -65 -89 -125 -89 -225 0 -47 4 -94 11 -104 9 -16 7 -26 -13 -51 -13 -17 -36 -58 -51 -90 -25 -54 -28 -71 -28 -170 0 -100 -3 -115 -28 -162 -98 -188 -67 -400 81 -555 57 -60 161 -121 228 -134 l34 -6 0 -84 0 -84 -335 0 -336 0 -24 -25 c-33 -32 -33 -78 0 -110 l24 -25 2271 0 2271 0 24 25 c33 32 33 78 0 110 -23 24 -29 25 -160 25 l-135 0 0 204 0 204 34 6 c67 13 171 74 228 134 148 155 179 367 81 555 -25 47 -28 62 -28 162 0 102 -2 115 -31 175 -17 36 -40 76 -51 89 -19 23 -19 28 -6 70 32 102 -13 253 -96 322 -68 56 -118 73 -211 73 -100 0 -160 -24 -225 -89 -65 -65 -89 -125 -89 -225 0 -47 4 -94 11 -104 9 -16 7 -26 -13 -51 -13 -17 -36 -58 -51 -90 -25 -54 -28 -71 -28 -170 0 -100 -3 -115 -28 -162 -98 -188 -67 -400 81 -555 57 -60 161 -121 228 -134 33 -6 34 -7 34 -55 l0 -49 -67 45 c-40 27 -79 45 -96 45 -55 0 -94 -69 -68 -119 6 -10 60 -50 120 -91 l111 -73 0 -58 0 -59 -320 0 -320 0 0 2000 0 2000 135 0 c131 0 137 1 160 25 25 24 25 26 25 215 0 189 0 191 -25 215 l-24 25 -1311 0 -1311 0 -24 -25z m2535 -215 l0 -80 -1200 0 -1200 0 0 80 0 80 1200 0 1200 0 0 -80z m-320 -2240 l0 -2000 -280 0 -280 0 0 295 0 296 -25 24 -24 25 -271 0 -271 0 -24 -25 -25 -24 0 -296 0 -295 -280 0 -280 0 0 2000 0 2000 880 0 880 0 0 -2000z m968 -187 c73 -54 90 -132 48 -212 -14 -28 -26 -60 -26 -70 0 -11 24 -47 53 -80 77 -86 93 -154 60 -257 l-17 -54 36 -52 c65 -96 72 -116 73 -208 0 -78 -3 -90 -34 -148 -37 -67 -83 -110 -152 -142 l-44 -19 -5 135 c-5 128 -6 137 -29 155 -30 24 -72 24 -102 0 -23 -18 -24 -27 -29 -155 l-5 -136 -51 24 c-137 64 -212 224 -171 367 9 30 35 83 58 117 l42 63 -16 53 c-33 103 -17 171 60 257 29 33 53 69 53 80 0 11 -11 41 -25 67 -48 91 -19 187 70 228 40 19 119 12 153 -13z m-3440 -240 c73 -54 90 -132 48 -212 -14 -28 -26 -60 -26 -70 0 -11 24 -47 53 -80 77 -86 93 -154 60 -257 l-17 -54 36 -52 c65 -96 72 -116 73 -208 0 -78 -3 -90 -34 -148 -37 -67 -83 -110 -152 -142 l-44 -19 -5 135 c-5 128 -6 137 -29 155 -30 24 -72 24 -102 0 -23 -18 -24 -27 -29 -155 l-5 -136 -51 24 c-137 64 -212 224 -171 367 9 30 35 83 58 117 l42 63 -16 53 c-33 103 -17 171 60 257 29 33 53 69 53 80 0 11 -11 41 -25 67 -48 91 -19 187 70 228 40 19 119 12 153 -13z m1752 -1333 l0 -240 -160 0 -160 0 0 240 0 240 160 0 160 0 0 -240z"></path><path d="M1865 4215 l-25 -24 0 -271 0 -271 25 -24 24 -25 271 0 271 0 24 25 25 24 0 271 0 271 -25 24 -24 25 -271 0 -271 0 -24 -25z m455 -295 l0 -160 -160 0 -160 0 0 160 0 160 160 0 160 0 0 -160z"></path><path d="M2665 4215 l-25 -24 0 -271 0 -271 25 -24 24 -25 271 0 271 0 24 25 25 24 0 271 0 271 -25 24 -24 25 -271 0 -271 0 -24 -25z m455 -295 l0 -160 -160 0 -160 0 0 160 0 160 160 0 160 0 0 -160z"></path><path d="M1865 3415 l-25 -24 0 -271 0 -271 25 -24 24 -25 271 0 271 0 24 25 25 24 0 271 0 271 -25 24 -24 25 -271 0 -271 0 -24 -25z m455 -295 l0 -160 -160 0 -160 0 0 160 0 160 160 0 160 0 0 -160z"></path><path d="M2665 3415 l-25 -24 0 -271 0 -271 25 -24 24 -25 271 0 271 0 24 25 25 24 0 271 0 271 -25 24 -24 25 -271 0 -271 0 -24 -25z m455 -295 l0 -160 -160 0 -160 0 0 160 0 160 160 0 160 0 0 -160z"></path><path d="M1865 2615 l-25 -24 0 -271 0 -271 25 -24 24 -25 271 0 271 0 24 25 25 24 0 271 0 271 -25 24 -24 25 -271 0 -271 0 -24 -25z m455 -295 l0 -160 -160 0 -160 0 0 160 0 160 160 0 160 0 0 -160z"></path><path d="M2665 2615 l-25 -24 0 -271 0 -271 25 -24 24 -25 271 0 271 0 24 25 25 24 0 271 0 271 -25 24 -24 25 -271 0 -271 0 -24 -25z m455 -295 l0 -160 -160 0 -160 0 0 160 0 160 160 0 160 0 0 -160z"></path><path d="M1865 1815 l-25 -24 0 -271 0 -271 25 -24 24 -25 271 0 271 0 24 25 25 24 0 271 0 271 -25 24 -24 25 -271 0 -271 0 -24 -25z m455 -295 l0 -160 -160 0 -160 0 0 160 0 160 160 0 160 0 0 -160z"></path><path d="M2665 1815 l-25 -24 0 -271 0 -271 25 -24 24 -25 271 0 271 0 24 25 25 24 0 271 0 271 -25 24 -24 25 -271 0 -271 0 -24 -25z m455 -295 l0 -160 -160 0 -160 0 0 160 0 160 160 0 160 0 0 -160z"></path><path d="M4265 1575 c-22 -21 -25 -33 -25 -95 0 -62 3 -74 25 -95 15 -16 36 -25 55 -25 19 0 40 9 55 25 22 21 25 33 25 95 0 62 -3 74 -25 95 -15 16 -36 25 -55 25 -19 0 -40 -9 -55 -25z"></path><path d="M4160 4311 c-73 -24 -131 -65 -187 -134 -13 -15 -32 -27 -43 -27 -66 0 -177 -88 -220 -175 -34 -69 -35 -198 -2 -265 34 -71 75 -113 144 -151 l63 -34 332 -3 332 -3 55 26 c99 47 166 150 166 255 0 116 -85 234 -192 265 -51 14 -56 19 -78 67 -29 65 -90 126 -155 157 -54 26 -169 37 -215 22z m168 -178 c42 -31 62 -65 71 -121 11 -73 31 -92 96 -92 58 0 110 -28 133 -70 20 -39 8 -98 -27 -134 l-31 -31 -314 0 c-302 0 -316 1 -342 21 -53 39 -69 71 -69 134 0 93 54 150 150 158 59 5 66 10 118 91 45 70 151 92 215 44z"></path><path d="M800 3431 c-73 -24 -131 -65 -187 -134 -13 -15 -32 -27 -43 -27 -28 0 -99 -35 -141 -69 -19 -16 -51 -58 -69 -93 -31 -57 -34 -71 -35 -148 0 -78 3 -90 34 -148 37 -69 79 -109 151 -144 44 -22 56 -23 377 -26 l332 -3 55 26 c99 47 166 150 166 255 0 116 -85 234 -192 265 -51 14 -56 19 -78 67 -29 65 -90 126 -155 157 -54 26 -169 37 -215 22z m168 -178 c42 -31 62 -65 71 -121 11 -73 31 -92 96 -92 58 0 110 -28 133 -70 20 -39 8 -98 -27 -134 l-31 -31 -314 0 c-302 0 -316 1 -342 21 -53 39 -69 71 -69 134 0 93 54 150 150 158 59 5 66 10 118 91 45 70 151 92 215 44z"></path><path d="M4825 375 c-16 -15 -25 -36 -25 -55 0 -19 9 -40 25 -55 21 -22 33 -25 95 -25 62 0 74 3 95 25 16 15 25 36 25 55 0 19 -9 40 -25 55 -21 22 -33 25 -95 25 -62 0 -74 -3 -95 -25z"></path></g></svg>