<svg xmlns="http://www.w3.org/2000/svg" width="64.000000pt" height="64.000000pt" viewBox="0 0 64.000000 64.000000" preserveAspectRatio="xMidYMid meet"><g transform="translate(0.000000,64.000000) scale(0.100000,-0.100000)" fill="#045ACB" stroke="none"><path d="M160 620 c-19 -19 -20 -33 -20 -300 0 -349 -16 -320 180 -320 178 0 180 1 180 124 l0 85 48 3 47 3 0 115 0 115 -47 3 -48 3 0 75 c0 111 -4 114 -180 114 -127 0 -142 -2 -160 -20z m210 -30 c0 -5 -22 -10 -50 -10 -27 0 -50 5 -50 10 0 6 23 10 50 10 28 0 50 -4 50 -10z m110 -95 l0 -44 -127 -3 -128 -3 0 -115 0 -115 128 -3 127 -3 0 -54 0 -55 -160 0 -160 0 0 220 0 220 160 0 160 0 0 -45z m100 -125 c0 -19 -7 -20 -170 -20 -163 0 -170 1 -170 20 0 19 7 20 170 20 163 0 170 -1 170 -20z m-200 -70 c0 -6 -30 -10 -70 -10 -40 0 -70 4 -70 10 0 6 30 10 70 10 40 0 70 -4 70 -10z m90 0 c0 -5 -16 -10 -35 -10 -19 0 -35 5 -35 10 0 6 16 10 35 10 19 0 35 -4 35 -10z m-125 -250 c0 -18 -6 -26 -23 -28 -24 -4 -38 18 -28 44 3 9 15 14 28 12 17 -2 23 -10 23 -28z"></path></g></svg>