<svg xmlns="http://www.w3.org/2000/svg" width="64.000000pt" height="64.000000pt" viewBox="0 0 64.000000 64.000000" preserveAspectRatio="xMidYMid meet"><g transform="translate(0.000000,64.000000) scale(0.100000,-0.100000)" fill="#045ACB" stroke="none"><path d="M59 611 c-34 -35 -37 -68 -9 -104 l21 -26 -21 -11 c-35 -19 -51 -65 -48 -138 l3 -67 110 -6 c61 -3 118 -2 127 2 19 10 41 69 36 101 -2 13 -13 27 -25 33 -13 5 -23 13 -23 17 0 4 -13 22 -29 40 -26 30 -28 35 -15 53 22 30 17 82 -11 110 -34 35 -78 33 -116 -4z m101 -11 c39 -39 11 -110 -44 -110 -25 0 -66 41 -66 67 0 21 46 63 70 63 11 0 29 -9 40 -20z m21 -156 c26 -24 24 -41 -7 -48 -25 -7 -26 -9 -22 -61 l5 -55 -33 0 c-33 0 -33 1 -36 52 -4 74 -28 77 -28 4 0 -49 -2 -56 -20 -56 -18 0 -20 7 -20 58 1 64 15 98 51 119 29 16 85 10 110 -13z m75 -79 c9 -21 -14 -82 -34 -90 -32 -12 -71 72 -45 98 13 13 74 7 79 -8z"></path><path d="M201 336 c-8 -10 -9 -16 -1 -21 13 -8 30 3 30 21 0 18 -14 18 -29 0z"></path><path d="M353 581 c-29 -26 -53 -52 -53 -58 0 -16 99 -103 117 -103 8 0 17 9 20 20 5 17 15 20 102 22 l96 3 3 48 c5 70 -5 77 -108 77 -79 0 -88 2 -93 20 -8 30 -27 24 -84 -29z m67 4 c0 -11 20 -15 98 -17 l97 -3 3 -42 3 -43 -100 0 c-83 0 -101 -3 -101 -15 0 -24 -17 -18 -60 21 l-40 36 43 39 c46 42 57 47 57 24z"></path><path d="M461 364 c-25 -32 -27 -81 -4 -106 17 -19 16 -20 -4 -36 -11 -9 -26 -27 -32 -40 -7 -13 -24 -27 -38 -33 -23 -9 -25 -13 -20 -55 3 -29 13 -54 26 -68 20 -19 30 -21 124 -17 56 1 108 8 115 13 17 15 15 122 -3 158 -8 16 -24 35 -35 43 -18 12 -18 16 -6 26 36 30 23 119 -19 135 -39 15 -83 6 -104 -20z m104 -8 c21 -15 25 -67 5 -90 -17 -21 -69 -20 -92 1 -22 20 -23 61 -1 85 19 21 62 24 88 4z m22 -160 c26 -22 28 -30 28 -92 0 -57 -3 -69 -17 -72 -14 -3 -17 6 -20 52 -4 72 -22 73 -26 1 l-3 -55 -40 0 c-36 0 -39 2 -29 19 5 11 10 36 10 55 0 31 -4 38 -31 49 l-31 12 27 28 c37 36 92 37 132 3z m-139 -62 c30 -8 30 -54 -1 -89 -22 -26 -23 -26 -40 -7 -10 11 -20 35 -24 55 -5 35 -3 38 37 46 3 0 15 -2 28 -5z"></path><path d="M420 94 c-9 -10 -10 -18 -3 -25 8 -8 14 -5 22 9 13 25 -2 38 -19 16z"></path><path d="M203 200 c-5 -17 -15 -20 -102 -22 l-96 -3 -3 -48 c-5 -70 5 -77 109 -77 73 0 89 -3 89 -15 0 -34 31 -26 85 22 30 26 55 53 55 60 0 16 -99 103 -117 103 -8 0 -17 -9 -20 -20z m84 -54 l32 -29 -42 -38 c-46 -42 -57 -46 -57 -24 0 11 -20 15 -97 17 l-98 3 -3 43 -3 42 100 0 c96 0 101 1 101 21 0 24 8 20 67 -35z"></path></g></svg>