<svg xmlns="http://www.w3.org/2000/svg" width="64.000000pt" height="64.000000pt" viewBox="0 0 64.000000 64.000000" preserveAspectRatio="xMidYMid meet"><g transform="translate(0.000000,64.000000) scale(0.100000,-0.100000)" fill="#045ACB" stroke="none"><path d="M200 600 c-25 -25 -28 -101 -5 -120 14 -12 14 -15 -4 -34 -10 -12 -25 -40 -32 -63 -11 -40 -14 -43 -58 -48 -25 -4 -53 -7 -61 -8 -12 -2 -15 -28 -18 -155 -2 -99 1 -152 8 -152 6 0 10 45 10 120 0 100 3 120 15 120 8 0 15 -4 15 -10 0 -5 5 -10 10 -10 6 0 10 9 10 20 0 16 7 20 38 20 43 0 54 6 72 40 l13 24 9 -24 c5 -15 5 -43 -2 -72 -5 -27 -10 -75 -10 -107 0 -40 -5 -63 -15 -71 -8 -7 -15 -21 -15 -32 0 -17 6 -19 48 -16 l47 3 3 75 c4 123 12 137 31 55 15 -58 15 -73 4 -86 -7 -8 -13 -23 -13 -32 0 -22 72 -24 90 -2 16 19 5 34 -12 17 -7 -7 -23 -12 -38 -12 -23 1 -24 2 -7 14 17 13 17 18 3 74 -9 33 -16 72 -16 86 0 19 -5 26 -18 26 -28 0 -42 -42 -42 -125 l0 -75 -32 0 c-28 1 -31 2 -17 13 12 9 17 36 21 107 7 120 11 130 54 130 19 0 34 5 34 10 0 6 -16 10 -36 10 -32 0 -37 4 -51 40 -9 22 -22 40 -30 40 -16 0 -17 22 -2 37 9 9 15 8 26 -3 8 -8 18 -14 23 -14 16 0 41 32 36 46 -6 15 24 27 48 18 23 -9 20 -24 -5 -24 -19 0 -20 -4 -14 -36 9 -51 23 -84 35 -84 13 0 13 -1 -5 50 -8 23 -15 44 -15 46 0 2 15 -3 32 -11 23 -9 35 -22 41 -44 4 -17 12 -31 17 -31 23 0 -5 77 -31 85 -10 4 -19 13 -19 21 0 13 4 13 29 0 30 -16 41 -34 41 -67 0 -10 5 -19 10 -19 15 0 12 37 -5 70 -11 21 -31 34 -80 51 -64 24 -65 24 -65 61 0 43 -27 78 -60 78 -11 0 -29 -9 -40 -20z m50 -19 c0 -11 7 -27 16 -35 8 -9 14 -26 12 -38 -2 -19 -9 -23 -38 -23 -30 0 -35 4 -38 26 -2 14 4 31 12 39 9 7 16 21 16 31 0 11 5 19 10 19 6 0 10 -9 10 -19z m20 -130 c0 -14 -18 -23 -31 -15 -8 4 -7 9 2 15 18 11 29 11 29 0z m-80 -90 c0 -5 -4 -21 -10 -35 -9 -24 -15 -26 -65 -26 -30 0 -55 -4 -55 -10 0 -5 -4 -10 -10 -10 -5 0 -10 6 -10 14 0 9 19 16 60 20 53 6 61 10 66 31 6 24 24 35 24 16z"></path><path d="M441 334 c-20 -14 -48 -24 -67 -24 l-34 0 0 -72 c0 -91 18 -130 85 -180 28 -21 53 -38 57 -38 19 0 112 87 124 116 8 18 14 65 14 104 l0 70 -34 0 c-19 0 -49 11 -70 25 -20 14 -38 25 -39 24 -1 0 -17 -12 -36 -25z m74 -24 c22 -11 50 -20 63 -20 24 0 24 -1 20 -76 l-4 -77 -48 -43 c-26 -24 -55 -44 -63 -44 -25 0 -92 53 -108 87 -8 17 -15 58 -15 92 0 57 2 61 23 61 16 0 90 31 92 39 1 0 18 -8 40 -19z"></path><path d="M440 285 c-14 -8 -33 -14 -42 -15 -15 0 -18 -9 -18 -50 0 -63 19 -102 65 -130 l35 -22 35 22 c45 28 65 67 65 127 0 47 -1 49 -37 61 -62 22 -77 23 -103 7z m94 -27 c27 -10 28 -13 23 -61 -4 -42 -10 -55 -38 -78 -19 -16 -36 -28 -39 -28 -3 0 -20 12 -39 28 -28 23 -34 36 -38 78 l-5 49 38 16 c22 9 46 14 54 11 8 -3 28 -10 44 -15z"></path><path d="M520 223 c0 -5 -12 -21 -26 -37 -22 -25 -29 -28 -45 -18 -15 10 -19 9 -19 -1 0 -12 38 -42 45 -35 18 18 65 83 65 89 0 11 -20 12 -20 2z"></path></g></svg>