<svg xmlns="http://www.w3.org/2000/svg" width="64.000000pt" height="64.000000pt" viewBox="0 0 64.000000 64.000000" preserveAspectRatio="xMidYMid meet"><g transform="translate(0.000000,64.000000) scale(0.100000,-0.100000)" fill="#045ACB" stroke="none"><path d="M498 624 c-16 -8 -28 -21 -28 -29 0 -14 -12 -21 -90 -53 l-25 -11 28 0 c15 -1 42 6 58 15 35 18 50 10 69 -36 11 -27 10 -31 -33 -72 -45 -44 -139 -108 -157 -108 -22 0 -8 42 27 80 25 29 33 44 26 51 -12 12 -48 14 -78 5 -11 -3 -26 -2 -34 3 -20 13 1 38 40 46 28 6 41 25 17 25 -21 0 -71 -29 -85 -50 -8 -11 -21 -20 -30 -20 -8 0 -30 -15 -49 -34 -48 -48 -48 -104 0 -152 26 -26 42 -34 70 -34 41 0 91 22 99 43 3 7 33 31 68 53 34 21 79 56 100 77 32 33 40 37 56 26 15 -9 26 -8 51 5 18 9 32 22 32 29 -1 24 -75 152 -90 154 -8 1 -27 -4 -42 -13z m80 -73 c33 -60 34 -63 16 -76 -31 -23 -38 -18 -72 51 -31 63 -32 67 -15 80 26 20 33 14 71 -55z m-224 -100 c3 -5 -1 -15 -10 -22 -13 -10 -17 -10 -24 1 -5 8 -6 18 -4 22 7 11 31 10 38 -1z m-63 -20 c21 -17 22 -22 12 -40 -16 -25 -17 -63 -2 -78 17 -17 -29 -43 -74 -43 -79 0 -118 97 -61 154 33 32 90 35 125 7z"></path><path d="M270 210 c-44 -18 -135 -21 -172 -5 -9 3 -31 5 -50 3 -30 -3 -33 -6 -36 -40 -2 -22 1 -38 7 -38 6 0 11 14 11 30 0 27 3 30 30 30 l31 0 -3 -77 c-3 -76 -4 -78 -28 -78 -21 0 -26 5 -28 33 -2 17 -8 32 -13 32 -6 0 -9 -17 -7 -37 l3 -38 90 -1 c50 0 103 -6 118 -12 16 -7 42 -12 58 -12 37 0 239 77 255 96 9 11 9 23 0 47 -18 52 -26 59 -53 52 -17 -4 -29 -1 -37 11 -11 14 -18 15 -49 5 -31 -11 -39 -10 -53 3 -18 19 -17 19 -74 -4z m60 -14 c0 -15 -31 -26 -70 -25 -22 0 -20 3 15 19 49 23 55 24 55 6z m100 -9 c0 -17 -90 -48 -108 -38 -11 6 0 14 39 29 65 25 69 26 69 9z m-185 -33 c94 -31 110 -41 94 -60 -8 -10 -19 -10 -60 2 -58 17 -89 13 -44 -6 49 -21 114 -16 197 16 61 23 80 26 89 17 14 -14 -40 -41 -164 -85 -61 -21 -70 -22 -124 -9 -32 7 -73 16 -90 18 -33 5 -33 6 -33 62 0 32 3 61 7 64 12 13 47 7 128 -19z m263 14 c-5 -13 -111 -58 -136 -58 -31 0 -3 24 53 46 69 26 88 29 83 12z"></path></g></svg>