<svg xmlns="http://www.w3.org/2000/svg" width="64.000000pt" height="64.000000pt" viewBox="0 0 64.000000 64.000000" preserveAspectRatio="xMidYMid meet"><g transform="translate(0.000000,64.000000) scale(0.100000,-0.100000)" fill="#045ACB" stroke="none"><path d="M310 601 c0 -24 -9 -35 -50 -61 -27 -18 -59 -44 -70 -58 l-19 -27 -1 37 c0 20 -4 40 -10 43 -5 3 -10 19 -10 36 0 16 -4 29 -9 29 -10 0 -21 -45 -26 -110 l-4 -45 8 42 c16 89 41 62 41 -44 0 -66 -2 -73 -19 -73 -12 0 -21 8 -24 23 -2 12 -5 3 -6 -21 -1 -34 -5 -44 -24 -52 -14 -5 68 -9 227 -9 202 -1 247 1 233 12 -12 9 -17 35 -20 112 -5 107 -14 165 -27 165 -7 0 -12 -16 -28 -105 -7 -37 -9 -38 -19 -19 -7 11 -37 38 -68 59 -45 31 -55 44 -55 67 0 15 -4 28 -10 28 -5 0 -10 -13 -10 -29z m67 -76 c29 -19 59 -48 68 -64 19 -38 24 -93 8 -98 -8 -3 -13 5 -13 20 0 30 -25 58 -45 51 -7 -3 -15 -20 -17 -37 -4 -41 -28 -49 -28 -8 0 58 -53 61 -62 3 -5 -34 -23 -31 -26 5 -2 17 -10 34 -17 37 -20 7 -45 -21 -45 -51 0 -15 -5 -23 -12 -20 -17 6 -13 72 7 100 17 25 105 96 120 96 6 1 34 -15 62 -34z m138 -8 c3 -12 5 -52 3 -87 -2 -52 -6 -65 -20 -68 -16 -3 -18 5 -18 71 0 78 6 107 21 107 5 0 11 -10 14 -23z m-267 -125 c2 -15 -2 -22 -12 -22 -11 0 -16 9 -16 26 0 31 23 28 28 -4z m86 12 c10 -26 7 -34 -14 -34 -13 0 -20 7 -20 18 0 33 23 44 34 16z m86 -9 c0 -16 -6 -25 -15 -25 -9 0 -15 9 -15 25 0 16 6 25 15 25 9 0 15 -9 15 -25z m100 -55 c0 -6 -73 -10 -200 -10 -127 0 -200 4 -200 10 0 6 73 10 200 10 127 0 200 -4 200 -10z"></path><path d="M490 490 c0 -5 5 -10 10 -10 6 0 10 5 10 10 0 6 -4 10 -10 10 -5 0 -10 -4 -10 -10z"></path><path d="M130 490 c0 -5 5 -10 10 -10 6 0 10 5 10 10 0 6 -4 10 -10 10 -5 0 -10 -4 -10 -10z"></path><path d="M140 244 c-7 -16 -7 -32 0 -44 7 -13 6 -21 -5 -30 -11 -9 -15 -32 -13 -94 l2 -81 3 75 c2 41 9 80 15 87 14 17 72 17 86 0 6 -7 13 -46 15 -87 l3 -75 2 81 c1 61 -2 85 -12 94 -11 9 -12 17 -4 34 16 37 -5 66 -48 66 -28 0 -36 -5 -44 -26z m80 -3 c15 -28 -21 -71 -47 -55 -20 12 -28 37 -19 60 8 21 53 17 66 -5z"></path><path d="M408 244 c-9 -19 -9 -30 0 -44 9 -14 8 -21 -3 -30 -11 -9 -14 -33 -13 -94 l2 -81 3 75 c2 41 9 80 15 87 13 17 72 17 86 1 5 -7 12 -22 15 -33 4 -16 5 -15 6 6 0 15 -6 32 -14 39 -11 9 -12 17 -4 32 16 30 -13 68 -51 68 -23 0 -33 -6 -42 -26z m77 -18 c0 -42 -29 -57 -56 -30 -29 29 -11 67 29 62 22 -2 27 -8 27 -32z"></path><path d="M293 168 c-4 -7 -9 -24 -10 -38 -2 -14 -5 -46 -9 -72 -4 -32 -2 -48 5 -48 7 0 11 20 11 50 0 49 1 50 30 50 29 0 30 -1 30 -50 0 -30 4 -50 11 -50 7 0 9 16 5 48 -10 81 -14 100 -21 111 -9 15 -42 14 -52 -1z m45 -21 c2 -12 -3 -17 -17 -17 -15 0 -21 6 -21 21 0 25 33 22 38 -4z"></path><path d="M513 35 c0 -22 2 -30 4 -17 2 12 2 30 0 40 -3 9 -5 -1 -4 -23z"></path></g></svg>