<?xml version="1.0" standalone="no"?>
<!DOCTYPE svg PUBLIC "-//W3C//DTD SVG 20010904//EN"
 "http://www.w3.org/TR/2001/REC-SVG-20010904/DTD/svg10.dtd">
<svg version="1.0" xmlns="http://www.w3.org/2000/svg"
 width="64.000000pt" height="64.000000pt" viewBox="0 0 64.000000 64.000000"
 preserveAspectRatio="xMidYMid meet">

<g transform="translate(0.000000,64.000000) scale(0.100000,-0.100000)"
fill="#045ACB" stroke="none">
<path d="M254 583 c4 -21 9 -45 12 -54 4 -13 -7 -17 -57 -23 -100 -10 -117 -8
-124 14 -5 14 -15 20 -37 20 -28 0 -30 -2 -23 -27 10 -35 10 -51 0 -85 -7 -26
-5 -28 23 -28 22 0 32 6 37 20 7 22 24 24 124 14 50 -6 61 -10 57 -23 -3 -9
-8 -33 -12 -53 -6 -37 -5 -38 24 -38 27 0 31 5 48 53 l19 52 74 5 c56 4 77 9
85 23 22 34 -4 52 -85 57 l-74 5 -19 53 c-17 47 -21 52 -48 52 -29 0 -30 -1
-24 -37z m60 -41 l18 -51 77 -3 c60 -2 76 -6 76 -18 0 -12 -16 -16 -77 -18
l-77 -3 -16 -49 c-15 -45 -31 -68 -40 -58 -2 2 1 25 7 51 5 27 8 50 6 52 -1 2
-49 6 -104 10 -98 7 -102 7 -109 -14 -11 -36 -21 -23 -21 29 0 51 10 65 21 30
7 -22 19 -24 139 -13 l78 6 -7 36 c-3 20 -9 44 -12 55 -3 12 -1 17 8 14 8 -3
22 -28 33 -56z"/>
<path d="M340 230 c0 -93 4 -170 9 -170 5 0 11 -9 14 -20 3 -12 14 -20 27 -20
13 0 24 8 27 20 8 30 118 30 126 0 7 -27 47 -27 54 0 3 11 9 20 14 20 5 0 9
77 9 170 l0 170 -140 0 -140 0 0 -170z m260 98 l0 -51 -21 19 c-31 28 -167 28
-198 0 l-21 -19 0 51 0 52 120 0 120 0 0 -52z m-29 -57 c27 -28 29 -34 29
-110 l0 -81 -120 0 -120 0 0 81 c0 76 2 82 29 110 26 26 36 29 91 29 55 0 65
-3 91 -29z m-171 -221 c0 -5 -4 -10 -10 -10 -5 0 -10 5 -10 10 0 6 5 10 10 10
6 0 10 -4 10 -10z m180 0 c0 -5 -4 -10 -10 -10 -5 0 -10 5 -10 10 0 6 5 10 10
10 6 0 10 -4 10 -10z"/>
<path d="M402 257 c-12 -13 -22 -35 -22 -50 l0 -27 100 0 100 0 0 28 c0 46
-36 72 -101 72 -45 0 -60 -4 -77 -23z m142 -13 c35 -34 20 -44 -64 -44 -84 0
-99 10 -64 44 21 21 107 21 128 0z"/>
<path d="M384 146 c-10 -26 4 -48 28 -44 33 4 33 52 0 56 -13 2 -25 -3 -28
-12z m36 -16 c0 -5 -4 -10 -10 -10 -5 0 -10 5 -10 10 0 6 5 10 10 10 6 0 10
-4 10 -10z"/>
<path d="M460 150 c0 -5 9 -10 20 -10 11 0 20 5 20 10 0 6 -9 10 -20 10 -11 0
-20 -4 -20 -10z"/>
<path d="M524 146 c-10 -26 4 -48 28 -44 33 4 33 52 0 56 -13 2 -25 -3 -28
-12z m36 -16 c0 -5 -4 -10 -10 -10 -5 0 -10 5 -10 10 0 6 5 10 10 10 6 0 10
-4 10 -10z"/>
<path d="M460 110 c0 -5 9 -10 20 -10 11 0 20 5 20 10 0 6 -9 10 -20 10 -11 0
-20 -4 -20 -10z"/>
<path d="M50 270 c0 -56 -3 -70 -15 -70 -12 0 -15 -17 -15 -90 l0 -90 120 0
c66 0 120 2 120 4 0 2 9 48 20 101 11 53 20 99 20 101 0 2 -22 4 -50 4 l-50 0
0 45 c0 43 -1 45 -30 45 l-30 0 0 -60 c0 -47 -3 -60 -15 -60 -12 0 -15 14 -15
70 l0 70 -30 0 -30 0 0 -70z m40 -10 c0 -33 -4 -60 -10 -60 -6 0 -10 27 -10
60 0 33 4 60 10 60 6 0 10 -27 10 -60z m90 1 c0 -22 -4 -43 -10 -46 -6 -4 -10
12 -10 39 0 25 5 46 10 46 6 0 10 -18 10 -39z m89 -88 c-5 -21 -9 -41 -9 -45
0 -5 -49 -8 -110 -8 l-110 0 0 30 0 30 64 0 c44 0 67 5 76 15 8 9 29 15 55 15
l43 0 -9 -37z m-19 -87 c0 -42 -9 -46 -111 -46 l-99 0 0 30 0 30 105 0 c84 0
105 -3 105 -14z"/>
<path d="M90 150 c0 -5 5 -10 10 -10 6 0 10 5 10 10 0 6 -4 10 -10 10 -5 0
-10 -4 -10 -10z"/>
<path d="M130 150 c0 -5 5 -10 10 -10 6 0 10 5 10 10 0 6 -4 10 -10 10 -5 0
-10 -4 -10 -10z"/>
<path d="M170 150 c0 -5 5 -10 10 -10 6 0 10 5 10 10 0 6 -4 10 -10 10 -5 0
-10 -4 -10 -10z"/>
<path d="M210 150 c0 -5 5 -10 10 -10 6 0 10 5 10 10 0 6 -4 10 -10 10 -5 0
-10 -4 -10 -10z"/>
</g>
</svg>
