<svg xmlns="http://www.w3.org/2000/svg" width="64.000000pt" height="64.000000pt" viewBox="0 0 64.000000 64.000000" preserveAspectRatio="xMidYMid meet"><g transform="translate(0.000000,64.000000) scale(0.100000,-0.100000)" fill="#045ACB" stroke="none"><path d="M264 588 c3 -17 13 -40 22 -49 15 -17 13 -20 -19 -48 -47 -42 -79 -119 -76 -182 2 -42 -1 -53 -26 -79 -16 -17 -35 -28 -43 -25 -18 7 -49 -11 -62 -36 -10 -17 -3 -28 51 -84 34 -36 67 -65 74 -65 22 0 57 47 50 69 -10 31 37 50 121 48 68 -2 71 -1 143 48 87 59 100 78 75 106 -17 19 -28 20 -66 4 -15 -6 -18 -1 -18 31 0 51 -39 133 -79 167 l-32 27 20 26 c12 15 21 37 21 50 0 23 -2 24 -81 24 l-81 0 6 -32z m122 -97 c18 -11 42 -41 58 -72 46 -93 29 -192 -25 -143 -15 14 -33 16 -96 11 -43 -3 -86 -8 -95 -12 -16 -6 -18 -1 -18 41 1 70 36 140 90 177 31 22 48 21 86 -2z m179 -220 c0 -8 -31 -37 -70 -65 l-70 -51 -83 -1 c-61 -1 -88 -6 -101 -18 -24 -22 -33 -20 -65 13 -34 36 -30 51 23 86 29 20 59 28 118 34 43 5 82 5 87 1 17 -16 -6 -30 -49 -30 -24 0 -47 -4 -50 -10 -4 -6 12 -10 42 -10 35 0 68 10 118 34 73 36 100 41 100 17z"></path><path d="M330 345 c0 -14 5 -25 10 -25 6 0 10 11 10 25 0 14 -4 25 -10 25 -5 0 -10 -11 -10 -25z"></path></g></svg>